<svg width="48" height="48" viewBox="0 0 488 512" fill="none" xmlns="http://www.w3.org/2000/svg">
<path d="M488 256C488 397.385 378.756 512 244 512C109.244 512 0 397.385 0 256C0 114.615 109.244 0 244 0C378.756 0 488 114.615 488 256Z" fill="#18F08A"/>
<path d="M112.5 256C112.5 220.379 141.379 191.5 177 191.5C212.621 191.5 241.5 220.379 241.5 256C241.5 291.621 212.621 320.5 177 320.5C141.379 320.5 112.5 291.621 112.5 256Z" fill="#050705"/>
<path d="M280.5 256C280.5 220.379 309.379 191.5 345 191.5C380.621 191.5 409.5 220.379 409.5 256C409.5 291.621 380.621 320.5 345 320.5C309.379 320.5 280.5 291.621 280.5 256Z" fill="#050705"/>
</svg>
